<svg height="25px" width="25px" viewBox="0 0 6.6145822 6.6145662"  xmlns="http://www.w3.org/2000/svg" version="1.1" id="svg8">
   <g id="layer1" transform="translate(-63.522993,-96.25264)">
         <path style="fill:#ff0000;stroke-width:0.0197768"
         d="m 65.435166,102.84874 c -0.204939,-0.0382 -0.421266,-0.16867 -0.552666,-0.3334 -0.152721,-0.19144 -0.09404,0.0678 -0.834417,-3.686481 -0.14504,-0.735465 -0.273367,-1.38266 -0.285175,-1.438216 -0.0196,-0.09249 -0.02618,-0.101012 -0.07748,-0.101012 -0.03388,0 -0.07546,-0.01959 -0.10528,-0.0496 -0.04808,-0.04839 -0.04944,-0.05862 -0.05584,-0.418478 -0.0042,-0.232902 0.0018,-0.39543 0.016,-0.440914 0.04416,-0.140807 -0.217514,-0.130907 3.313129,-0.125353 l 3.171418,0.005 0.05636,0.05335 0.05636,0.05335 v 0.411679 c 0,0.409217 -3.08e-4,0.411977 -0.04928,0.461331 -0.02984,0.03007 -0.07138,0.04965 -0.105281,0.04965 -0.05126,0 -0.0578,0.0085 -0.07748,0.101012 -0.0118,0.05556 -0.127121,0.637814 -0.256218,1.293914 -0.1291,0.656093 -0.293433,1.487278 -0.36519,1.847068 -0.07176,0.35979 -0.177141,0.89227 -0.234171,1.18328 -0.08676,0.44267 -0.11504,0.55135 -0.173141,0.66522 -0.12062,0.23648 -0.376426,0.41901 -0.658041,0.46956 -0.133361,0.0239 -2.654624,0.0231 -2.783631,-0.001 z m 0.22003,-0.33079 c 0,-0.003 -0.138281,-0.13482 -0.307268,-0.29341 l -0.30727,-0.28837 0.0134,0.0866 c 0.03676,0.23644 0.210502,0.43208 0.428287,0.48226 0.06108,0.014 0.172801,0.0225 0.172801,0.013 z m 1.509309,-0.30753 -0.330259,-0.31258 -0.33026,0.31258 -0.33026,0.31258 h 0.66052 0.660517 z m 1.045058,0.28391 c 0.207895,-0.0584 0.347478,-0.20345 0.394168,-0.4095 0.0126,-0.0553 0.0198,-0.10932 0.016,-0.11999 -0.0036,-0.0106 -0.143901,0.11055 -0.311442,0.26938 -0.328569,0.3115 -0.334187,0.3263 -0.09868,0.26011 z m -2.015577,-1.2025 -0.376152,-0.35602 -0.330199,0.31253 -0.3302,0.31253 0.375718,0.35599 0.375718,0.356 0.330634,-0.3125 0.330633,-0.31251 z m 1.987009,-0.0434 -0.3302,-0.31252 -0.37613,0.35561 -0.376132,0.35561 0.33018,0.31293 0.330177,0.31293 0.376152,-0.35601 0.376152,-0.35602 z m -0.965383,-0.21197 0.370792,-0.35133 -0.376078,-0.35556 -0.37608,-0.355554 -0.37608,0.355554 -0.376078,0.35556 0.37079,0.35133 c 0.203935,0.19323 0.37555,0.35133 0.381368,0.35133 0.0058,0 0.177421,-0.1581 0.381366,-0.35133 z m -2.027839,-0.69715 -0.375662,-0.355939 -0.06896,0.06527 -0.06896,0.0653 0.114661,0.58402 c 0.06306,0.32121 0.114561,0.59265 0.114421,0.60319 -1.54e-4,0.0105 0.14836,-0.12147 0.329969,-0.29335 l 0.330188,-0.31252 z m 3.687641,0.39694 c 0.0625,-0.31073 0.113641,-0.57959 0.113641,-0.59748 0,-0.0179 -0.02998,-0.06 -0.06666,-0.0937 l -0.06664,-0.06114 -0.375272,0.35557 -0.375274,0.35557 0.324068,0.30718 c 0.178241,0.16894 0.325962,0.30531 0.328278,0.30305 0.0024,-0.002 0.05534,-0.25835 0.11786,-0.56908 z m -2.671352,-1.359078 -0.3758,-0.356074 -0.376075,0.355944 -0.376078,0.355949 0.375804,0.356079 0.375801,0.35607 0.376076,-0.35594 0.376076,-0.355949 z m 2.012517,0 -0.375802,-0.356074 -0.376076,0.355944 -0.376076,0.355949 0.375802,0.356079 0.375802,0.35607 0.376076,-0.35594 0.376076,-0.355949 z m -3.02406,-0.235489 c 0.198561,-0.187725 0.361036,-0.351199 0.361036,-0.363269 0,-0.0121 -0.165221,-0.174635 -0.367162,-0.361239 L 64.819233,98.077884 64.586822,98.285 c -0.127821,0.113915 -0.232419,0.21145 -0.232425,0.21674 -8e-6,0.0053 0.03034,0.161139 0.06742,0.346324 l 0.06744,0.336709 0.16114,0.148804 c 0.08862,0.08184 0.165621,0.148945 0.171101,0.149115 0.0056,1.45e-4 0.172421,-0.15329 0.370994,-0.341009 z m 2.023093,-0.01 0.370792,-0.351329 -0.376078,-0.355559 -0.37608,-0.355561 -0.37608,0.355561 -0.376078,0.355559 0.37079,0.351329 c 0.203935,0.193229 0.37555,0.351329 0.381368,0.351329 0.0058,0 0.177421,-0.1581 0.381366,-0.351329 z m 2.024916,-0.245124 c 0.03166,-0.16402 0.06186,-0.31987 0.06716,-0.346325 0.0082,-0.0411 -0.02416,-0.078 -0.222842,-0.253904 l -0.232463,-0.205806 -0.369566,0.338101 c -0.203263,0.185954 -0.366756,0.346079 -0.36332,0.355834 0.0034,0.0098 0.170241,0.173129 0.370692,0.363054 l 0.364444,0.345314 0.164181,-0.14902 0.164181,-0.149019 z m -3.032044,-0.722394 0.36017,-0.34721 -0.279117,-0.263672 -0.27912,-0.263672 h -0.182961 -0.18296 l -0.284084,0.269393 -0.284083,0.269393 0.365669,0.346688 c 0.20112,0.190675 0.374816,0.344345 0.385998,0.341485 0.0112,-0.003 0.182401,-0.16144 0.380496,-0.352405 z m 2.018229,0.01055 0.365458,-0.3463 -0.284084,-0.269393 -0.284083,-0.269393 h -0.182961 -0.182961 l -0.279813,0.26433 -0.279816,0.264332 0.370824,0.351359 c 0.203953,0.193255 0.375586,0.351365 0.381406,0.351365 0.0058,0 0.175041,-0.155835 0.37604,-0.3463 z m -3.871784,-0.528426 c -0.105481,-0.100248 -0.195001,-0.179215 -0.198961,-0.17548 -0.007,0.0067 0.08836,0.506835 0.11006,0.576535 0.0096,0.03045 0.03272,0.0159 0.145981,-0.09129 l 0.134701,-0.127493 z m 5.108074,0.131664 c 0.03108,-0.165291 0.05332,-0.303545 0.04942,-0.307232 -0.0038,-0.0037 -0.09328,0.07523 -0.198661,0.175379 l -0.191581,0.182081 0.13104,0.125151 c 0.07208,0.06883 0.136061,0.125152 0.142161,0.125152 0.006,0 0.03652,-0.13524 0.06762,-0.300531 z M 64.9584,97.439269 c 0.07018,-0.06583 0.127601,-0.126439 0.127601,-0.134682 0,-0.0082 -0.123501,-0.01498 -0.274434,-0.01498 -0.150941,0 -0.274435,0.0063 -0.274435,0.01391 0,0.02151 0.250293,0.255452 0.273301,0.255452 0.0112,0 0.07778,-0.05386 0.147961,-0.119696 z m 2.012516,0 c 0.07018,-0.06583 0.127601,-0.126439 0.127601,-0.134682 0,-0.0082 -0.118921,-0.01498 -0.264269,-0.01498 -0.145341,0 -0.26427,0.0063 -0.26427,0.01391 0,0.01556 0.247114,0.255452 0.263136,0.255452 0.0056,0 0.06762,-0.05386 0.1378,-0.119696 z m 2.032843,0 c 0.07018,-0.06583 0.127601,-0.126439 0.127601,-0.134682 0,-0.0082 -0.123501,-0.01498 -0.274436,-0.01498 -0.150941,0 -0.274433,0.0063 -0.274433,0.01391 0,0.02151 0.250291,0.255452 0.273299,0.255452 0.0112,0 0.0778,-0.05386 0.147961,-0.119696 z m 0.767944,-0.659537 v -0.173113 h -2.937457 -2.93746 l -0.006,0.152222 c -0.0032,0.08372 -0.0013,0.163732 0.0044,0.177799 0.0086,0.02114 0.519005,0.02477 2.943456,0.02094 l 2.933085,-0.0046 z" />
     </g>
</svg>